<svg width="12" height="12" viewBox="0 0 12 12" fill="none" xmlns="http://www.w3.org/2000/svg">
<path d="M7.71429 5.28571C7.71429 6.93973 6.3683 8.28571 4.71429 8.28571C3.06027 8.28571 1.71429 6.93973 1.71429 5.28571C1.71429 3.6317 3.06027 2.28571 4.71429 2.28571C6.3683 2.28571 7.71429 3.6317 7.71429 5.28571ZM11.1429 10.8571C11.1429 10.6295 11.0491 10.4085 10.8951 10.2545L8.59821 7.95759C9.14063 7.17411 9.42857 6.23661 9.42857 5.28571C9.42857 2.6808 7.3192 0.571428 4.71429 0.571428C2.10938 0.571428 0 2.6808 0 5.28571C0 7.89062 2.10938 10 4.71429 10C5.66518 10 6.60268 9.71205 7.38616 9.16964L9.68304 11.4598C9.83705 11.6205 10.058 11.7143 10.2857 11.7143C10.7545 11.7143 11.1429 11.3259 11.1429 10.8571Z" fill="#959BAC"/>
</svg>
